<?xml version="1.0" encoding="utf-8"?>
<!-- Generator: Adobe Illustrator 19.2.1, SVG Export Plug-In . SVG Version: 6.00 Build 0)  -->
<svg version="1.1" id="layer" xmlns="http://www.w3.org/2000/svg" xmlns:xlink="http://www.w3.org/1999/xlink" x="0px" y="0px"
	 viewBox="0 0 652 652" style="enable-background:new 0 0 652 652;" xml:space="preserve">
<style type="text/css">
	.st0{fill:#FF3354;}
	.st1{fill:#00587F;}
</style>
<g id="Footerpages_1_">
	<g id="kitt_services_desktop_190118_1_" transform="translate(-822 -2227)">
		<g id="Kapten_Logotype_BluePassenger_RGB" transform="translate(822 2227)">
			<path id="Kapten_Logotype_Passenger_Underscore" class="st0" d="M550.3,358.8h70.3c0.5,0,1.4,0.5,1.4,1.4V376
				c0,0.5-0.5,1.4-1.4,1.4h-70.3c-0.5,0-1.4-0.5-1.4-1.4v-15.8C549.4,359.7,549.8,358.8,550.3,358.8z"/>
			<path id="Kapten_Logotype_Blue" class="st1" d="M92.2,357c0.5,0.5,0.5,1.4,0,1.8c-0.5,0-0.5,0.5-0.9,0.5H73.7
				c-0.5,0-0.5,0-0.9-0.5l-32.9-36.9v36c0,0.5-0.5,1.4-1.4,1.4H23.3c-0.5,0-1.4-0.5-1.4-1.4V262c0-0.5,0.5-0.9,0.9-0.9l14.9-4.5
				c0.5,0,1.4,0,1.4,0.9v56.8l31.1-35.1c0-0.5,0.5-0.5,0.9-0.5h18c0.5,0,1.4,0.5,1.4,1.4c0,0.5,0,0.5-0.5,0.9l-33.8,37.4L92.2,357z
				 M348,278.7h-18.9v-20.7c0-0.5-0.5-1.4-1.4-1.4h-0.5l-15.3,4.5c-0.5,0-0.9,0.5-0.9,0.9v16.2h-13.5c-0.5,0-1.4,0.5-1.4,1.4V294
				c0,0.5,0.5,1.4,1.4,1.4h13.5v38.7c0,20.7,10.4,27.9,36.5,25.2c0.5,0,0.9-0.5,0.9-1.4v-13.5c0-0.5-0.5-1.4-1.4-1.4
				c-12.2,0.5-18.9,0.5-18.9-9.5v-38.3h18.9c0.5,0,1.4-0.5,1.4-1.4v-14.4C349.4,279.1,348.9,278.7,348,278.7z M442.2,319.2
				c0,1.8,0,4.1-0.5,5.9c0,0.9-0.9,1.4-1.4,1.4h-62.6c2.7,12.2,13.1,18.9,25.7,18.9c7.7,0.5,14.9-3.2,19.8-9
				c0.5-0.5,1.4-0.9,2.3-0.5l11.7,6.8c0.9,0.5,0.9,1.4,0.5,2.3c-7.7,9.9-19.4,16.2-34.2,16.2c-26.6,0-43.7-18-43.7-42.3
				c0-23.9,17.1-42.3,42.3-42.3C426,276.4,442.2,295.8,442.2,319.2L442.2,319.2z M424.6,312c-2.3-13.5-12.6-19.4-23-19.4
				c-13.1,0-21.6,7.7-24.3,19.4H424.6z M500.7,276.4c-10.8,0-19.8,4.1-25.2,12.2v-9c0-0.5-0.5-1.4-1.4-1.4h-14.9
				c-0.5,0-1.4,0.5-1.4,1.4v77.9c0,0.5,0.5,1.4,1.4,1.4h14.9c0.5,0,1.4-0.5,1.4-1.4v-41.9c0-16.2,9-23,20.3-23
				c10.8,0,18,6.3,18,18.5v46.4c0,0.5,0.5,1.4,1.4,1.4h15.3c0.5,0,1.4-0.5,1.4-1.4v-47.7C531.8,288.6,519.2,276.4,500.7,276.4z
				 M181.4,280v77.9c0,0.5-0.5,1.4-1.4,1.4h-15.3c-0.5,0-1.4-0.5-1.4-1.4v-10.4c-6.8,9-15.8,13.5-28.4,13.5
				c-10.8,0-21.2-4.5-28.4-12.2c-7.7-8.1-12.2-18.9-11.7-30.2c-0.5-11.3,4.1-22.1,11.7-30.2c7.2-8.1,17.6-12.6,28.4-12.2
				c12.2,0,21.6,4.5,28.4,13.5v-10.4c0-0.5,0.5-1.4,1.4-1.4H180C180.9,278.2,181.4,279.1,181.4,280
				C181.4,279.6,181.4,279.6,181.4,280L181.4,280z M163.8,318.7c0.5-6.8-2.3-13.5-7.2-18.5c-9.9-9.9-26.1-9.9-36.5,0
				c-5,5-7.7,11.3-7.2,18.5c0,6.8,2.3,13.5,7.2,18.5c10.4,9.5,26.1,9.5,36.5,0C161.5,332.3,164.2,325.5,163.8,318.7z M278.2,289
				c7.7,8.1,12.2,18.9,11.7,29.7c0.5,11.3-4.1,22.1-11.7,30.2c-7.2,8.1-17.6,12.6-28.4,12.2c-12.2,0-21.6-4.5-28.4-13.5v36.5
				c0,0.5-0.5,1.4-1.4,1.4h-15.3c-0.5,0-1.4-0.5-1.4-1.4V280c0-0.5,0.5-1.4,1.4-1.4h15.3c0.5,0,1.4,0.5,1.4,1.4v10.4
				c6.8-9,15.8-13.5,28.4-13.5C260.6,276.4,271,280.9,278.2,289z M272.8,318.7c0.5-6.8-2.3-13.5-7.2-18.5c-9.9-9.9-26.1-9.9-36.5,0
				c-5,5-7.2,11.7-7.2,18.5c0,6.8,2.3,13.5,7.2,18.5c10.4,9.5,26.1,9.5,36.5,0C270.5,332.3,272.8,325.5,272.8,318.7z"/>
		</g>
	</g>
</g>
</svg>
